<svg width="56" height="58" viewBox="0 0 56 58" fill="none" xmlns="http://www.w3.org/2000/svg">
<path d="M54.2 34.21C53.4395 32.1311 52.2582 30.2315 50.73 28.63C49.3685 27.2333 47.7301 26.1365 45.92 25.41C44.0855 24.6973 42.1274 24.3573 40.16 24.41C38.0179 24.4644 35.898 24.8594 33.88 25.58L29.56 27.25L19.56 1.47C19.3428 0.906981 18.912 0.452478 18.3615 0.205298C17.811 -0.0418821 17.1851 -0.0617546 16.62 0.15L12.85 1.61C12.2882 1.83106 11.8364 2.26504 11.593 2.8175C11.3495 3.36996 11.3341 3.99621 11.55 4.56L30.61 53.71C30.8832 54.4163 31.2931 55.0618 31.816 55.6095C32.339 56.1572 32.9649 56.5964 33.6578 56.902C34.3507 57.2076 35.097 57.3735 35.8541 57.3903C36.6112 57.4072 37.3642 57.2745 38.07 57L45.41 54.15C47.4427 53.3964 49.3079 52.2515 50.9 50.78C52.3359 49.4588 53.4797 47.852 54.2581 46.0627C55.0365 44.2734 55.4322 42.3412 55.42 40.39C55.4042 38.2717 54.9904 36.1753 54.2 34.21ZM46.05 37C46.8887 38.8914 47.0165 41.0219 46.41 43C46.0534 43.9449 45.4863 44.7962 44.7516 45.4893C44.017 46.1824 43.1341 46.699 42.17 47L37.86 48.68L32.42 34.68L36.73 33.01C37.7123 32.6029 38.7668 32.3988 39.83 32.41C40.7449 32.4278 41.6467 32.6319 42.48 33.01C43.2888 33.3925 44.0104 33.9371 44.6 34.61C45.2156 35.3185 45.706 36.1267 46.05 37Z" fill="#0078FD"/>
<path d="M42.56 1.61006L38.8 0.150057C38.2349 -0.0653258 37.6076 -0.0484661 37.055 0.196957C36.5023 0.442381 36.0691 0.896443 35.85 1.46006L27.71 22.4601L19.57 1.46006C19.3509 0.896443 18.9177 0.442381 18.365 0.196957C17.8124 -0.0484661 17.1851 -0.0653258 16.62 0.150057L12.85 1.61006C12.2882 1.83112 11.8364 2.26509 11.593 2.81755C11.3495 3.37002 11.3341 3.99627 11.55 4.56006L19.46 25.0001C18.0841 24.6635 16.676 24.4758 15.26 24.4401C13.2894 24.3874 11.328 24.7273 9.49 25.4401C7.68344 26.1678 6.0486 27.2645 4.69 28.6601C3.15835 30.2589 1.97658 32.1593 1.22 34.2401C0.433294 36.196 0.0195081 38.2819 1.41462e-06 40.3901C-0.00902725 42.3185 0.379026 44.2281 1.14 46.0001C1.92747 47.7964 3.07829 49.4103 4.52 50.7401C6.10565 52.2247 7.96759 53.3833 10 54.1501L17.35 57.0001C18.0558 57.2746 18.8088 57.4072 19.5659 57.3904C20.323 57.3736 21.0694 57.2076 21.7623 56.9021C22.4552 56.5965 23.081 56.1573 23.604 55.6095C24.1269 55.0618 24.5368 54.4163 24.81 53.7101L43.87 4.56006C44.0854 3.995 44.0685 3.36769 43.8231 2.81502C43.5777 2.26235 43.1236 1.82919 42.56 1.61006V1.61006ZM17.56 48.6101L13.25 47.0001C12.2841 46.7004 11.3992 46.1844 10.6627 45.4912C9.92627 44.7981 9.3576 43.9461 9 43.0001C8.39351 41.022 8.52134 38.8914 9.36 37.0001C9.69893 36.1092 10.1895 35.2836 10.81 34.5601C11.3976 33.885 12.1197 33.34 12.93 32.9601C13.7634 32.582 14.6651 32.3778 15.58 32.3601C16.6432 32.3489 17.6977 32.553 18.68 32.9601L23 34.5901L17.56 48.6101Z" fill="#EAC926"/>
</svg>
